<svg width="73" height="56" viewBox="0 0 73 56" fill="none" xmlns="http://www.w3.org/2000/svg">
<path d="M72.8 0H0V56H72.8V0Z" fill="white"/>
<path d="M2.8 33.6V2.8H19.6V8.4H8.4V33.6C8.4 37.8233 10.9795 40.9227 14.7841 43.3006C18.2956 45.4953 22.4297 46.7845 25.2 47.5092C27.9704 46.7845 32.1043 45.4953 35.616 43.3006C39.4205 40.9227 42 37.8233 42 33.6V28H47.6V33.6C47.6 40.5767 43.1795 45.1771 38.584 48.0494C33.9957 50.9171 28.7408 52.4008 25.879 53.1165L25.2 53.2861L24.521 53.1165C21.6592 52.4008 16.4042 50.9171 11.8159 48.0494C7.22048 45.1771 2.8 40.5767 2.8 33.6Z" fill="#D65638"/>
<path d="M58.2946 1.84196L55.4073 8.40002H53.2499L56.0835 1.99222L56.0728 1.97076H52.6059V0.21049H58.2946V1.84196Z" fill="#5B32D8"/>
<path d="M64.6347 8.17462C64.3127 8.2891 63.9835 8.37496 63.6473 8.43222C63.318 8.48946 62.9746 8.51809 62.6169 8.51809C61.6509 8.51809 60.8816 8.23902 60.3092 7.68089C59.7438 7.12276 59.4613 6.36069 59.4613 5.39469C59.4613 4.50023 59.7224 3.78469 60.2448 3.24802C60.7742 2.70419 61.4864 2.43229 62.3807 2.43229C63.175 2.43229 63.7903 2.64696 64.2269 3.07629C64.6634 3.49846 64.8816 4.09236 64.8816 4.85802C64.8816 5.05836 64.8674 5.25873 64.8387 5.45909C64.81 5.65943 64.7708 5.8419 64.7206 6.00649H61.4899C61.5543 6.32133 61.6903 6.5503 61.8977 6.69342C62.1124 6.82936 62.4272 6.89736 62.8423 6.89736C63.0856 6.89736 63.3325 6.87589 63.5829 6.83296C63.8332 6.79002 64.1839 6.69699 64.6347 6.55389V8.17462ZM63.1321 4.54676C63.1321 4.2963 63.0604 4.1031 62.9174 3.96716C62.7814 3.82403 62.5882 3.75249 62.3378 3.75249C62.0587 3.75249 61.8406 3.84193 61.6831 4.02082C61.5328 4.1997 61.4542 4.46089 61.4469 4.80436H63.1106C63.1178 4.79003 63.1213 4.76856 63.1213 4.73996C63.1286 4.70416 63.1321 4.63976 63.1321 4.54676Z" fill="#5B32D8"/>
<path d="M51.2059 6.63976V8.40002H45.7212V6.59682C47.1165 5.28019 48.0002 4.38933 48.3723 3.92422C48.7515 3.45196 48.9412 3.04409 48.9412 2.70062C48.9412 2.40725 48.8588 2.19258 48.6943 2.05662C48.5298 1.92067 48.2722 1.85269 47.9215 1.85269C47.5494 1.85269 47.1882 1.90278 46.8375 2.00296C46.494 2.10313 46.1648 2.24982 45.85 2.44302V0.586157C46.1578 0.43589 46.5334 0.314246 46.977 0.221223C47.4206 0.128201 47.8536 0.0816895 48.2757 0.0816895C49.1486 0.0816895 49.8321 0.296357 50.3258 0.72569C50.8268 1.15502 51.0771 1.76324 51.0771 2.55036C51.0771 3.07986 50.8804 3.63085 50.4868 4.20329C50.1004 4.76859 49.3705 5.56642 48.2972 6.59682L48.3294 6.63976H51.2059Z" fill="#5B32D8"/>
<path d="M30.6096 6.53242V8.40002H25.2V0.21049H27.5399V6.53242H30.6096Z" fill="#5B32D8"/>
<path d="M34.8861 6.89736L34.4246 8.40002H32.0096L34.7359 0.21049H37.1616L39.8879 8.40002H37.4729L37.0113 6.89736H34.8861ZM35.9165 2.44302C35.8878 2.63622 35.8449 2.87952 35.7877 3.17289C35.7306 3.45912 35.6697 3.71672 35.6053 3.94569L35.2725 5.13709H36.6249L36.3029 3.94569C36.2385 3.70956 36.1741 3.44839 36.1097 3.16216C36.0526 2.86879 36.0131 2.62906 35.9917 2.44302H35.9165Z" fill="#5B32D8"/>
<path d="M58.8 21C57.2537 21 56 19.7464 56 18.2C56 16.6536 57.2537 15.4 58.8 15.4C60.3463 15.4 61.6 16.6536 61.6 18.2C61.6 19.7464 60.3463 21 58.8 21Z" fill="#5B32D8"/>
<path d="M65.2325 19.2337V22.4H63V14.2105H65.1467L67.0679 17.3339C67.211 17.5557 67.3398 17.7775 67.4543 17.9994C67.5759 18.2212 67.6832 18.4394 67.7763 18.6541L67.8193 18.6434C67.805 18.4215 67.7906 18.2033 67.7763 17.9886C67.7691 17.774 67.7656 17.5593 67.7656 17.3446V14.2105H69.9981V22.4H67.8515L65.9302 19.2444C65.7942 19.0155 65.6654 18.7901 65.5438 18.5682C65.4222 18.3464 65.3112 18.1317 65.2111 17.9242L65.1681 17.935C65.1896 18.1496 65.2038 18.3679 65.2111 18.5897C65.2253 18.8044 65.2325 19.019 65.2325 19.2337Z" fill="#5B32D8"/>
<path d="M54.6 20.6397V22.4H49.8451V20.6397H51.058V15.9707H49.8451V14.2104H54.6V15.9707H53.3979V20.6397H54.6Z" fill="#5B32D8"/>
<path d="M44.3856 17.7202H47.7451V21.8418C47.1298 22.0923 46.6002 22.2676 46.1566 22.3678C45.72 22.4608 45.2657 22.5073 44.7935 22.5073C43.5412 22.5073 42.5467 22.1388 41.8096 21.4018C41.0797 20.6576 40.7148 19.6272 40.7148 18.3106C40.7148 16.9796 41.1012 15.9457 41.874 15.2086C42.6468 14.4716 43.7094 14.1031 45.0618 14.1031C45.5483 14.1031 45.9956 14.146 46.4035 14.2319C46.8113 14.3106 47.2372 14.4466 47.6807 14.6398V16.7113C47.2514 16.4465 46.84 16.2533 46.4464 16.1317C46.0528 16.0101 45.6414 15.9492 45.2121 15.9492C44.475 15.9492 43.9313 16.1424 43.5806 16.5288C43.2299 16.9081 43.0547 17.4984 43.0547 18.2998C43.0547 19.1084 43.2014 19.7095 43.4947 20.103C43.7953 20.4894 44.2603 20.6826 44.8901 20.6826C44.9759 20.6826 45.0618 20.6791 45.1477 20.6719C45.2408 20.6576 45.3266 20.6397 45.4053 20.6182V19.4805H44.3856V17.7202Z" fill="#5B32D8"/>
<path d="M27.5296 19.706V22.4H25.2005V14.2105H28.0877C29.204 14.2105 30.0482 14.4323 30.6208 14.876C31.1932 15.3196 31.4795 15.9779 31.4795 16.8509C31.4795 17.3375 31.3791 17.774 31.1789 18.1604C30.9785 18.5468 30.6959 18.8509 30.331 19.0727L31.9732 22.4H29.365L28.2273 19.6845C28.1556 19.6917 28.077 19.6988 27.9911 19.706C27.9053 19.706 27.8264 19.706 27.755 19.706H27.5296ZM28.0877 16.0352H27.5296V17.8813H27.9697C28.3561 17.8813 28.6494 17.8026 28.8498 17.6452C29.05 17.4806 29.1503 17.2409 29.1503 16.926C29.1503 16.6398 29.0572 16.4216 28.8713 16.2713C28.6851 16.1139 28.424 16.0352 28.0877 16.0352Z" fill="#5B32D8"/>
<path d="M38.6661 12.3322L35.4783 13.8241L34.7592 12.5254L37.5606 10.7007L38.6661 12.3322ZM39.0096 20.6398V22.4H33.6V14.2105H38.8808V15.9708H35.9399V17.3661H38.6661V19.1264H35.9399V20.6398H39.0096Z" fill="#5B32D8"/>
</svg>
