<svg width="328" height="291" viewBox="0 0 328 291" fill="none" xmlns="http://www.w3.org/2000/svg">
<path d="M75.2332 53.9621H29.1225V192.886C29.1225 216.923 48.5494 234.348 73.4901 246.696C85.4986 252.641 97.6453 256.797 106.875 259.471C112.106 260.987 116.322 262.003 118.917 262.585C121.512 262.003 125.728 260.987 130.959 259.471C140.189 256.797 152.336 252.641 164.344 246.696C189.285 234.348 208.712 216.923 208.712 192.886V172.219C208.712 164.61 215.231 158.442 223.273 158.442C231.315 158.442 237.834 164.61 237.834 172.219V192.886C237.834 233.144 205.083 257.626 177.846 271.111C163.765 278.082 149.823 282.824 139.486 285.819C134.291 287.324 129.942 288.406 126.855 289.119C124.223 289.727 121.575 290.244 118.917 290.743C116.259 290.244 113.612 289.727 110.979 289.119C107.892 288.406 103.543 287.324 98.3482 285.819C88.011 282.824 74.0687 278.082 59.9882 271.111C32.7511 257.626 0 233.144 0 192.886V49.3696C0 36.6877 10.8655 26.407 24.2688 26.407H75.2332C83.2752 26.407 89.7945 32.5754 89.7945 40.1845C89.7945 47.7937 83.2752 53.9621 75.2332 53.9621Z" fill="#E65C00"/>
<path d="M140.143 54.0984H123.025C120.714 54.0984 118.917 52.4081 118.917 50.2349V3.87284C118.917 1.78011 120.714 0.00934007 123.025 0.00934007C125.251 0.00934007 127.134 1.78011 127.134 3.87284V46.3714H140.143C142.369 46.3714 144.252 48.1421 144.252 50.2349C144.252 52.4081 142.369 54.0984 140.143 54.0984Z" fill="#660080"/>
<path d="M167.845 0.00934007C169.728 0.00934007 171.354 1.13619 171.782 2.82647L185.477 49.5105C186.076 51.6032 184.792 53.6959 182.652 54.2593C180.427 54.8228 178.202 53.6154 177.602 51.6032C177.602 51.6032 176.575 48.1421 175.12 43.1518H160.57C159.115 48.1421 158.088 51.6032 158.088 51.6032C157.489 53.6154 155.263 54.8228 153.038 54.2593C150.898 53.6959 149.615 51.6032 150.214 49.5105L163.908 2.82647C164.336 1.13619 165.962 0.00934007 167.845 0.00934007ZM167.845 18.4415C166.305 23.6733 164.507 29.871 162.881 35.4248H172.809C171.183 29.871 169.386 23.6733 167.845 18.4415Z" fill="#660080"/>
<path d="M222.71 10.634C221.598 12.4852 219.116 13.1291 217.147 12.0828C215.179 10.9559 214.494 8.62173 215.606 6.77047C217.489 3.71186 220.571 1.45815 224.251 0.492276C227.846 -0.473601 231.697 0.00934012 235.035 1.69962C238.373 3.3899 240.77 6.20704 241.883 9.6681C242.91 13.0487 242.567 16.6707 240.856 19.8098C240.856 19.8098 230.328 38.6444 225.963 46.3714C231.612 46.3714 238.373 46.3714 238.373 46.3714C240.599 46.3714 242.482 48.1421 242.482 50.2349C242.482 52.4081 240.599 54.0984 238.373 54.0984H219.201C217.746 54.0984 216.462 53.374 215.692 52.2471C214.922 51.0398 214.922 49.6714 215.521 48.4641L233.58 16.2682C234.265 14.8999 234.436 13.2901 234.008 11.8413C233.495 10.3925 232.468 9.18515 231.098 8.46075C229.643 7.73635 228.017 7.57536 226.391 7.97781C224.85 8.38026 223.566 9.34614 222.71 10.634Z" fill="#660080"/>
<path d="M259.173 10.634C259.173 12.8072 257.376 14.4975 255.065 14.4975C252.84 14.4975 250.957 12.8072 250.957 10.634V4.1948C250.957 2.10207 252.84 0.331299 255.065 0.331299H275.607C276.89 0.331299 278.089 0.894724 278.859 1.78011C279.629 2.74599 279.886 3.95333 279.629 5.08018L267.647 51.4422C267.133 53.5349 264.908 54.8228 262.682 54.3398C260.799 53.8569 259.516 52.3276 259.516 50.5568C259.516 50.2349 259.601 49.9934 259.687 49.6714C259.687 49.6714 268.417 15.7853 270.386 8.0583C266.192 8.0583 262.768 8.0583 259.173 8.0583C259.173 9.26565 259.173 10.634 259.173 10.634Z" fill="#660080"/>
<path d="M307.447 50.7983C303.853 54.0984 298.546 55.1447 293.924 53.2935C289.217 51.4422 286.221 47.2567 286.221 42.5079V26.4099C286.221 19.9708 291.784 14.7389 298.632 14.7389C305.479 14.7389 311.042 19.9708 311.042 26.4099V34.4589C311.042 36.4711 309.33 38.0809 307.191 38.0809H293.924V42.5079C293.924 44.2786 295.037 45.8884 296.834 46.6128C298.632 47.2567 300.6 46.9348 301.97 45.647C303.425 44.1981 305.907 44.1981 307.447 45.647C308.902 47.0958 308.902 49.3495 307.447 50.7983ZM303.339 26.4099C303.339 23.9952 301.199 21.983 298.632 21.983C296.064 21.983 293.924 23.9952 293.924 26.4099V30.8369C296.834 30.8369 300.686 30.8369 303.339 30.8369C303.339 28.6636 303.339 26.4099 303.339 26.4099Z" fill="#660080"/>
<path d="M147.675 90.3039V94.8113C147.675 100.043 144.594 104.551 139.972 106.804L147.419 125.639C148.274 127.651 147.162 129.905 145.022 130.629C142.882 131.354 140.571 130.388 139.715 128.375L131.756 108.334H127.134V127.007C127.134 129.18 125.336 130.871 123.025 130.871C120.8 130.871 118.917 129.18 118.917 127.007V80.6451C118.917 78.5524 120.8 76.7816 123.025 76.7816H133.296C141.256 76.7816 147.675 82.8183 147.675 90.3039ZM133.296 84.5086H127.134V100.607H133.296C136.72 100.607 139.459 98.0309 139.459 94.8113V90.3039C139.459 87.0843 136.72 84.5086 133.296 84.5086Z" fill="#660080"/>
<path d="M184.138 80.6451C184.138 82.8183 182.255 84.5086 180.03 84.5086H167.02V98.9967H178.318C180.543 98.9967 182.426 100.768 182.426 102.86C182.426 105.033 180.543 106.724 178.318 106.724H167.02V122.822H180.03C182.255 122.822 184.138 124.592 184.138 126.685C184.138 128.858 182.255 130.549 180.03 130.549H162.912C160.601 130.549 158.803 128.858 158.803 126.685V80.6451C158.803 78.5524 160.601 76.7816 162.912 76.7816H180.03C182.255 76.7816 184.138 78.5524 184.138 80.6451ZM164.281 72.2742C162.826 70.8254 162.997 68.4912 164.538 67.1229L173.097 59.8788C174.723 58.5105 177.205 58.6714 178.575 60.2007C180.03 61.6496 179.944 63.9838 178.318 65.3521L169.759 72.5961C168.133 73.9645 165.736 73.8035 164.281 72.2742Z" fill="#660080"/>
<path d="M209.658 100.607H218.217C220.528 100.607 222.325 102.377 222.325 104.47V117.348C222.325 124.834 215.906 130.871 207.946 130.871C200.072 130.871 193.567 124.834 193.567 117.348V89.9819C193.567 83.8647 197.932 78.4719 204.266 76.9426C210.514 75.3328 217.19 77.9085 220.442 83.2208C221.555 85.072 220.87 87.4062 218.902 88.5331C216.933 89.5795 214.451 88.9355 213.338 87.0843C211.883 84.8306 209.059 83.7037 206.406 84.4281C203.667 85.072 201.784 87.4062 201.784 89.9819V117.348C201.784 120.568 204.608 123.144 207.946 123.144C211.37 123.144 214.109 120.568 214.109 117.348V108.334H209.658C207.433 108.334 205.55 106.643 205.55 104.47C205.55 102.377 207.433 100.607 209.658 100.607Z" fill="#660080"/>
<path d="M242.363 127.007C242.363 129.18 240.565 130.871 238.254 130.871C236.029 130.871 234.146 129.18 234.146 127.007V80.3231C234.146 78.2304 236.029 76.4596 238.254 76.4596C240.565 76.4596 242.363 78.2304 242.363 80.3231V127.007Z" fill="#660080"/>
<path d="M283.292 117.348C283.292 124.834 276.872 130.871 268.912 130.871C260.953 130.871 254.533 124.834 254.533 117.348V89.9819C254.533 82.4964 260.953 76.4596 268.912 76.4596C276.872 76.4596 283.292 82.4964 283.292 89.9819V117.348ZM275.075 89.9819C275.075 86.7623 272.336 84.1867 268.912 84.1867C265.489 84.1867 262.75 86.7623 262.75 89.9819V117.348C262.75 120.568 265.489 123.144 268.912 123.144C272.336 123.144 275.075 120.568 275.075 117.348V89.9819Z" fill="#660080"/>
<path d="M327.629 127.007C327.629 128.778 326.259 130.388 324.462 130.79C322.579 131.193 320.61 130.307 319.84 128.697C319.84 128.697 310.767 111.07 303.663 97.226C303.663 110.99 303.663 127.007 303.663 127.007C303.663 129.18 301.78 130.871 299.555 130.871C297.244 130.871 295.447 129.18 295.447 127.007V80.3231C295.447 78.5524 296.731 76.9426 298.614 76.5401C300.497 76.1377 302.38 77.0231 303.235 78.6329C303.235 78.6329 312.308 96.2601 319.412 110.104C319.412 96.3406 319.412 80.3231 319.412 80.3231C319.412 78.2304 321.209 76.4596 323.52 76.4596C325.746 76.4596 327.629 78.2304 327.629 80.3231V127.007Z" fill="#660080"/>
</svg>
