<svg width="384" height="300" viewBox="0 0 384 300" fill="none" xmlns="http://www.w3.org/2000/svg">
<path d="M48 180V48H120V72H72V180C72 198.1 83.0552 211.383 99.3604 221.574C114.41 230.98 132.127 236.505 144 239.611C155.873 236.505 173.59 230.98 188.64 221.574C204.945 211.383 216 198.1 216 180V156H240V180C240 209.9 221.055 229.616 201.36 241.926C181.696 254.216 159.175 260.575 146.91 263.642L144 264.369L141.09 263.642C128.825 260.575 106.304 254.216 86.6396 241.926C66.9449 229.616 48 209.9 48 180Z" fill="#D65638"/>
<path d="M285.834 43.8941L273.46 72.0001H264.214L276.358 44.5381L276.312 44.4461H261.454V36.9021H285.834V43.8941Z" fill="#5B32D8"/>
<path d="M313.006 71.0341C311.626 71.5247 310.215 71.8927 308.774 72.1381C307.363 72.3834 305.891 72.5061 304.358 72.5061C300.218 72.5061 296.921 71.3101 294.468 68.9181C292.045 66.5261 290.834 63.2601 290.834 59.1201C290.834 55.2867 291.953 52.2201 294.192 49.9201C296.461 47.5894 299.513 46.4241 303.346 46.4241C306.75 46.4241 309.387 47.3441 311.258 49.1841C313.129 50.9934 314.064 53.5387 314.064 56.8201C314.064 57.6787 314.003 58.5374 313.88 59.3961C313.757 60.2547 313.589 61.0367 313.374 61.7421H299.528C299.804 63.0914 300.387 64.0727 301.276 64.6861C302.196 65.2687 303.545 65.5601 305.324 65.5601C306.367 65.5601 307.425 65.4681 308.498 65.2841C309.571 65.1001 311.074 64.7014 313.006 64.0881V71.0341ZM306.566 55.4861C306.566 54.4127 306.259 53.5847 305.646 53.0021C305.063 52.3887 304.235 52.0821 303.162 52.0821C301.966 52.0821 301.031 52.4654 300.356 53.2321C299.712 53.9987 299.375 55.1181 299.344 56.5901H306.474C306.505 56.5287 306.52 56.4367 306.52 56.3141C306.551 56.1607 306.566 55.8847 306.566 55.4861Z" fill="#5B32D8"/>
<path d="M255.454 64.4561V72.0001H231.948V64.2721C237.928 58.6294 241.715 54.8114 243.31 52.8181C244.935 50.7941 245.748 49.0461 245.748 47.5741C245.748 46.3168 245.395 45.3968 244.69 44.8141C243.985 44.2314 242.881 43.9401 241.378 43.9401C239.783 43.9401 238.235 44.1548 236.732 44.5841C235.26 45.0134 233.849 45.6421 232.5 46.4701V38.5121C233.819 37.8681 235.429 37.3468 237.33 36.9481C239.231 36.5494 241.087 36.3501 242.896 36.3501C246.637 36.3501 249.566 37.2701 251.682 39.1101C253.829 40.9501 254.902 43.5568 254.902 46.9301C254.902 49.1994 254.059 51.5608 252.372 54.0141C250.716 56.4368 247.588 59.8561 242.988 64.2721L243.126 64.4561H255.454Z" fill="#5B32D8"/>
<path d="M167.184 63.9961V72.0001H144V36.9021H154.028V63.9961H167.184Z" fill="#5B32D8"/>
<path d="M185.512 65.5601L183.534 72.0001H173.184L184.868 36.9021H195.264L206.948 72.0001H196.598L194.62 65.5601H185.512ZM189.928 46.4701C189.805 47.2981 189.621 48.3408 189.376 49.5981C189.131 50.8248 188.87 51.9288 188.594 52.9101L187.168 58.0161H192.964L191.584 52.9101C191.308 51.8981 191.032 50.7788 190.756 49.5521C190.511 48.2948 190.342 47.2674 190.25 46.4701H189.928Z" fill="#5B32D8"/>
<path d="M288 126C281.373 126 276 120.627 276 114C276 107.373 281.373 102 288 102C294.627 102 300 107.373 300 114C300 120.627 294.627 126 288 126Z" fill="#5B32D8"/>
<path d="M315.568 118.43V132H306V96.9021H315.2L323.434 110.288C324.047 111.239 324.599 112.189 325.09 113.14C325.611 114.091 326.071 115.026 326.47 115.946L326.654 115.9C326.593 114.949 326.531 114.014 326.47 113.094C326.439 112.174 326.424 111.254 326.424 110.334V96.9021H335.992V132H326.792L318.558 118.476C317.975 117.495 317.423 116.529 316.902 115.578C316.381 114.627 315.905 113.707 315.476 112.818L315.292 112.864C315.384 113.784 315.445 114.719 315.476 115.67C315.537 116.59 315.568 117.51 315.568 118.43Z" fill="#5B32D8"/>
<path d="M270 124.456V132H249.622V124.456H254.82V104.446H249.622V96.9019H270V104.446H264.848V124.456H270Z" fill="#5B32D8"/>
<path d="M226.224 111.944H240.622V129.608C237.985 130.681 235.715 131.433 233.814 131.862C231.943 132.261 229.996 132.46 227.972 132.46C222.605 132.46 218.343 130.881 215.184 127.722C212.056 124.533 210.492 120.117 210.492 114.474C210.492 108.77 212.148 104.339 215.46 101.18C218.772 98.0212 223.326 96.4419 229.122 96.4419C231.207 96.4419 233.124 96.6259 234.872 96.9939C236.62 97.3312 238.445 97.9139 240.346 98.7419V107.62C238.506 106.485 236.743 105.657 235.056 105.136C233.369 104.615 231.606 104.354 229.766 104.354C226.607 104.354 224.277 105.182 222.774 106.838C221.271 108.463 220.52 110.993 220.52 114.428C220.52 117.893 221.149 120.469 222.406 122.156C223.694 123.812 225.687 124.64 228.386 124.64C228.754 124.64 229.122 124.625 229.49 124.594C229.889 124.533 230.257 124.456 230.594 124.364V119.488H226.224V111.944Z" fill="#5B32D8"/>
<path d="M153.984 120.454V132H144.002V96.9021H156.376C161.16 96.9021 164.778 97.8528 167.232 99.7541C169.685 101.655 170.912 104.477 170.912 108.218C170.912 110.303 170.482 112.174 169.624 113.83C168.765 115.486 167.554 116.789 165.99 117.74L173.028 132H161.85L156.974 120.362C156.667 120.393 156.33 120.423 155.962 120.454C155.594 120.454 155.256 120.454 154.95 120.454H153.984ZM156.376 104.722H153.984V112.634H155.87C157.526 112.634 158.783 112.297 159.642 111.622C160.5 110.917 160.93 109.889 160.93 108.54C160.93 107.313 160.531 106.378 159.734 105.734C158.936 105.059 157.817 104.722 156.376 104.722Z" fill="#5B32D8"/>
<path d="M201.712 88.8521L188.05 95.2461L184.968 89.6801L196.974 81.8601L201.712 88.8521ZM203.184 124.456V132H180V96.9021H202.632V104.446H190.028V110.426H201.712V117.97H190.028V124.456H203.184Z" fill="#5B32D8"/>
</svg>
